<?xml version="1.0" encoding="utf-8"?>
<!-- Generator: Adobe Illustrator 23.0.1, SVG Export Plug-In . SVG Version: 6.00 Build 0)  -->
<svg version="1.1" id="Слой_1" xmlns="http://www.w3.org/2000/svg" xmlns:xlink="http://www.w3.org/1999/xlink" x="0px" y="0px"
	 viewBox="0 0 512 512" style="enable-background:new 0 0 512 512;" xml:space="preserve">
<style type="text/css">
	.st0{fill:#19223C;}
	.st1{fill:#67A4AC;}
</style>
<g id="Layer_1">
</g>
<g>
	<title>cr_color</title>
	<path class="st0" d="M277.8,102.2L31.7,256.5c-11.6,6.9-17.1,14.8-16.6,23.7V304c0.5,9,6.3,16.6,17.4,22.9l121.8,70.4
		c2.6,1.6,6,0.8,7.6-1.8c0.1-0.2,0.2-0.4,0.3-0.5h0.8l26.9-66.5l-58.6-33.2l-4-4c-3.4-4.6-2.4-11,2.2-14.4c0.3-0.2,0.7-0.5,1-0.6
		l0,0l106.8-64.9l44.3-106.8c0.6-1.1,0.3-2.5-0.8-3.2h-3.2V102.2z"/>
	<path class="st1" d="M480.3,188.4l-120.3-72.8c-2.5-1.8-6-1.2-7.7,1.3c-0.1,0.1-0.1,0.2-0.2,0.3l0,0l-28.5,66.5l57,34l4,4
		c2.2,3.4,2.2,7.7,0,11.1l-4,4L273,300l-45.1,106c-1.1,0.7-1.4,2.2-0.7,3.3c0.2,0.3,0.4,0.5,0.7,0.7c0.9,0.8,2.3,0.8,3.2,0l0,0
		l78.3-47.5l31.6,43.5c1.4,2.1,3.8,3.3,6.3,3.2h74.4c2.7,0,5.1-1.5,6.3-4c1.4-2.4,1.4-5.5,0-7.9l-50.6-77.5l102.1-61.7
		c11.6-6.9,17.4-14.8,17.4-23.7v-22.9c0-9-5.8-16.9-17.4-23.7L480.3,188.4z"/>
</g>
</svg>
